# xmcd
#
# Track frame offsets: 
#        183
#        11968
#        23428
#        32058
#        42293
#        53030
#        64520
#        76450
#        86943
#        98533
#        111303
#        122885
#        135565
#        146808
#        157550
#        168250
#        178735
#        189100
#        199645
#        209343
#
# Disc length: 2937 seconds
#
# Revision: 2
# Processed by: cddbd v1.4PL0 Copyright (c) Steve Scherf et al.
# Submitted via: ExactAudioCopy v0.90b3
#
DISCID=050b7714
DTITLE=George Jones - The Best Of Geoge Jones (Vol. 1: Hardcore Honky 
DTITLE=Tonk)
DYEAR=1900
DGENRE=Country
TTITLE0=You're Still On My Mind
TTITLE1=Hearts In My Dream
TTITLE2=If I Don't Love You
TTITLE3=Why Baby Why
TTITLE4=Relief Is Just A Swallow Away
TTITLE5=Just One More
TTITLE6=Out Of Control
TTITLE7=The Last Town I Painted
TTITLE8=You Better Treat Your Man Right
TTITLE9=Color Of The Blues
TTITLE10=The Window Up Above
TTITLE11=Aching, Breaking, Heart
TTITLE12=Mr. Fool
TTITLE13=Accidently On Purpose
TTITLE14=Glad To Let Her Go
TTITLE15=Talk To Me Lonesome Heart
TTITLE16=Someone Sweet To Love
TTITLE17=Tarnished Angel
TTITLE18=Into My Arms Again
TTITLE19=Tall Tall Trees
EXTD=
EXTT0=
EXTT1=
EXTT2=
EXTT3=
EXTT4=
EXTT5=
EXTT6=
EXTT7=
EXTT8=
EXTT9=
EXTT10=
EXTT11=
EXTT12=
EXTT13=
EXTT14=
EXTT15=
EXTT16=
EXTT17=
EXTT18=
EXTT19=
PLAYORDER=
